# xmcd
#
# Track frame offsets:
#	150
#	35022
#	92690
#	132952
#	206455
#
# Disc length: 3214 seconds
#
# Revision: 1
# Processed by: cddbd v1.5.1PL2 Copyright (c) Steve Scherf et al.
# Submitted via: EasyCDDAExtractor 9.0.0.1
#
DISCID=3e0c8c05
DTITLE=Rainbow - Porte De Pantin Pavillon Paris 27-10-77 Disc 1
DYEAR=1977
DGENRE=Hard Rock
TTITLE0=Intro: Over the Rainbow - Kill the King
TTITLE1=Mistreated
TTITLE2=Sixteenth Century Greensleeves
TTITLE3=Catch The Rainbow
TTITLE4=Long Live Rock and Roll
EXTD=
EXTT0=
EXTT1=
EXTT2=
EXTT3=
EXTT4=
PLAYORDER=
